<svg id="Capa_1" data-name="Capa 1" xmlns="http://www.w3.org/2000/svg" viewBox="0 0 351.97 116.73"><defs><style>.cls-1{fill:#FFF5E3;}</style></defs><rect class="cls-1" x="132.29" y="26.6" width="17.8" height="62.61"/><polygon class="cls-1" points="158.85 89.21 176.9 89.21 176.9 53.43 205.19 89.21 222.73 89.18 222.73 26.84 204.71 26.84 204.71 62.36 176.18 26.84 159.08 26.84 158.85 89.21"/><path class="cls-1" d="M268.07,26.74H250.54L226.18,89.16H243l4.82-11.32h22.44l3.86,11.34h17.59Zm-15.84,39,7.08-19.32,6.12,19.32Z"/><polygon class="cls-1" points="296.1 26.81 296.1 89.21 312.45 89.21 312.45 63.59 335.6 63.59 335.6 89.06 351.97 89.06 351.97 26.69 335.4 26.69 335.4 51.02 312.45 51.02 312.45 26.81 296.1 26.81"/><path class="cls-1" d="M115,43.56s-5.53-8.66-16.24-6.65c0,0-1.51.54-1.25-.7l5.37-11.41a2.55,2.55,0,0,0-1.3-3.54L79.41,10.15S77.21,9,75.59,12.67l-4,8.54s-.86,1-1.69-.53L61.38,2.16S60.67,0,58.94,0a2.81,2.81,0,0,0-2.37,1.6L47.81,20.16s-.67.75-1.3-.68l-4.27-8.62S41,8.78,38,10.07s-21.32,11-21.32,11-2.54,1-1.64,3.31l5.05,10.8a1.17,1.17,0,0,1,0,.82c-.14.27-.49.55-1.33.27A7,7,0,0,0,17,36.22a16.8,16.8,0,0,0-6.48,1.53S-1.87,42.94.24,58c0,0,2.2,11.3,13.2,14.14A19,19,0,0,0,21.59,72s1.19-.52.74.72L16.1,86S15,88.45,17.92,90l21.36,10.81a3.15,3.15,0,0,0,4.21-1.42l5-11s10.92,4.91,21.47.11l5.19,11a2.9,2.9,0,0,0,4,1.27l21.54-11.23s3-1.19,1-4.64L96,72.82s-.24-1.42,1.51-.89c0,0,10.12,3,17.4-6.76,0,0,7.87-10.52.14-21.61M58.92,11.28l8.25,17.6L66.34,30l.46.23a26.25,26.25,0,0,0-7.53-1.05,29.17,29.17,0,0,0-7.31.93l-.87-1.94Zm.22,64.24c-11.82,0-21.38-8.81-21.93-19.87h7.36c1.82,7.19,7.68,12.47,14.66,12.47S72,62.84,73.85,55.65H81c-.5,11.06-10.09,19.87-21.88,19.87M49.37,55.65H69.15c-1.64,4.65-5.47,7.89-9.87,7.89S51,60.3,49.37,55.65m25-5.46H37.7c2.2-9.32,10.92-16.3,21.44-16.3s19.23,7,21.41,16.3ZM39.2,94.32,23.08,85.86l8.75-19.51s1.8-3.1-1.25-4.49a3.91,3.91,0,0,0-4.68.82s-6.32,7.71-14.61,2.26c0,0-5.1-3-5.29-10.34,0,0,.48-12.13,10.87-12.71a10.35,10.35,0,0,1,5.66,1.31,4.33,4.33,0,0,0,5.34.59s2.24-1.24.7-4.46L22,24.92,38.3,16.69l7.3,16a25.25,25.25,0,0,0,1.15,45.23ZM51.9,84l1.64-3.73a28.11,28.11,0,0,0,5.73.6,30.54,30.54,0,0,0,5.95-.64l1.51,3.65A22.24,22.24,0,0,1,51.9,84m49.25-17.15a10.89,10.89,0,0,1-8.9-4.46S90,60.64,87.8,61.79c0,0-2.26,1.3-1.18,4.38l9,19.78L79.22,94.36,71.73,77.94a25.23,25.23,0,0,0,1-45.27l.3.09,7.18-16.2,16.22,8.49L89.81,39.21s-1.29,3.66.85,4.65a3.92,3.92,0,0,0,4.52-.13s4.77-3.17,9.87-1a12.78,12.78,0,0,1,7.77,11.77s-1,12.3-11.67,12.3"/><path class="cls-1" d="M60.75,94.45a11.14,11.14,0,1,0,10.83,11.12A11,11,0,0,0,60.75,94.45m0,17c-2.78,0-5-2.59-5-5.73s2.27-5.7,5-5.7,5,2.52,5,5.7-2.24,5.73-5,5.73"/></svg>