<?xml version="1.0" encoding="UTF-8"?>
<svg id="Capa_1" data-name="Capa 1" xmlns="http://www.w3.org/2000/svg" viewBox="0 0 1720.58 630.73">
  <defs>
    <style>
      .cls-1 {
        fill: #FFF5E3;
      }
    </style>
  </defs>
  <path class="cls-1" d="M713.4,353.59c-6.6-6.2-9.7-7.9-14.7-7.9h-4.6v4.5c0,4,.3,4.6,3.2,6.1,5,2.6,13.8,11.4,16.3,16.4l2.3,4.6-2,5.9c-2.6,7.4-3.6,27.3-1.9,35.5,2.3,11.1,8.9,21.2,14.8,22.6,3.4,.9,2.8,2.6-2.7,7.8-5.2,4.8-13,9.1-18.7,10.2-3.2,.6-3.3,.8-3.3,5.5s0,4.9,3.4,4.9c5.7,0,21.9-4.6,29.2-8.3,8.4-4.3,14.9-10.8,19.9-20.2,2.1-3.8,4-7.2,4.3-7.5,.2-.3,1.3,.8,2.4,2.3,4.3,5.8,13,7.4,20.3,3.7l3.9-2,6.6,6.4c9.2,9,14.4,12.1,25.3,15.3,8.7,2.6,9.9,3.3,12.5,6.8,2.9,4,7.7,8.5,14.4,13.7,4,3,7.8,10,7.8,14.1h0c0,2.4,.4,2.7,3.4,2.7,5.3,0,8.6-4.5,8.6-11.6,0-6.5-1.6-10.8-5.8-15.6l-3.1-3.5,13.7-.6c20.2-1,45.7-5.5,65.4-11.7,8.3-2.6,9.4-2.7,10.2-1.3,3,5.3,8.6,9.7,20.6,15.8,7.5,3.8,13.9,7.7,15.3,9.5,4.6,5.4,10.7,3.1,10.7-4,0-1.1,.3-2,.6-2,1.9,0,23.6,11.6,25.5,13.6,1.5,1.6,3.4,2.4,5.6,2.4,4.1,0,5.3-2.4,5.3-11,0-7.7-2.4-10.6-14.1-16.6-10.9-5.6-16.3-11.3-20.6-21.6l-3.1-7.3,3.3-2.8c4.1-3.3,5.9-8.4,5.2-14.4-.6-5.4-3.1-8.3-10-11.3-2.8-1.2-5.9-2.6-6.7-3-.9-.4-2.6-5.9-4.6-14.7-5.3-23-9.9-29.3-21.6-29.3-5.3,0-6.2,.4-16.3,7l-10.7,7.1-5.3-2c-10-3.8-21.9-5.2-48-5.8-26-.5-78.7,.9-93.6,2.7-4.8,.5-12.6,2.1-17.5,3.5l-8.8,2.6-5.7-2.5c-4.1-1.9-7.4-2.6-11.8-2.6-4.1,0-6.3-.4-6.5-1.2-5.1-17-10.8-28.6-20.6-41.6-5.3-7.1-5.5-7.3-9.5-7-3.9,.3-4,.4-4.3,4.1-.3,3.2,.4,4.8,4.6,10.5,5.2,7,15.2,23.9,15.2,25.6,0,.6-1.7-.6-3.7-2.5Zm11.2,12.8c-3.2-12.3-9.9-25.5-19.7-38.9-4.4-6-5.3-8.8-2.9-8.8,1.2,0,10.8,13.3,15.3,21.2,4.9,8.4,9,18.2,10.8,25.6,1,4.3,1.5,5.2,2.9,4.6,4.8-2.2,10.6-1.6,17.4,1.9l6.9,3.4,5-1.9c15.3-5.8,31.9-7.4,83.8-8.4,46.4-.9,66.2,.9,79.6,7l5.3,2.5,12.2-8c12.8-8.3,15.5-9.1,20.1-6.1,6.4,4.2,9.2,10,13.2,27.5,2,8.8,3.7,14.3,4.6,14.7,.8,.4,3.9,1.8,6.7,3,8.6,3.8,11.5,8.3,9,14.3-.8,1.9-3.1,4.7-5.2,6.2-4.2,3.3-4.2,3.5,.7,15.3,4.4,10.3,9.8,16,20.7,21.6,12.9,6.6,16.1,11.3,13.1,19.2l-1.1,2.7-2.7-2.6c-1.5-1.4-9.1-5.8-16.9-9.7-15.5-7.8-18.6-10.4-24.1-20.8-1.7-3.1-3.8-8.1-4.7-10.9-1-2.9-2.1-5.3-2.5-5.3-.5,0-3.8,1.3-7.5,3-5.9,2.6-6.5,3.2-5.6,4.9,1.8,3.2,9.7,9.6,16.3,13.1,3.5,1.8,7.5,4.4,9,5.8,3.3,3.1,4.5,8.1,2.8,12.2l-1.2,2.9-2.5-3c-1.5-1.8-7.6-5.5-14.5-9-12.5-6.3-18.3-10.7-21.3-16.2l-1.8-3.4-10.6,3.5c-24.6,8-51.1,12.5-73.8,12.6-9,.1-16.3,.2-16.3,.4s2.7,2.8,5.9,5.8c6.2,5.7,10.1,12.2,10.1,16.7h0c0,1.6-1.2,4-3,5.9l-2.9,3.3-.1-2.9c0-4.4-3.8-11.3-7.8-14.4-6.7-5.2-11.5-9.7-14.4-13.7-2.6-3.5-3.8-4.2-12.5-6.7-11.7-3.5-18.5-7.9-28.4-18.7l-7.5-7.9-1.7,2.9c-2,3.6-7.9,6.3-11.6,5.4-1.4-.4-4.9-3.2-7.8-6.3-2.8-3.1-5.4-5.4-5.6-5.2-.2,.3-2.5,4.6-5.1,9.5-2.7,5-6.9,11.2-9.4,13.8-7.1,7.3-17.9,12.2-35.4,16.1-2.3,.5-2.8,.3-2.8-1.3,0-1.3,.9-2.1,3.3-2.5,8.9-1.7,18.9-8.7,25.5-18,3.1-4.2,3.2-5.1,.8-4.7-2.1,.4-7.6-2.2-10.5-4.9-9.7-9.3-13.1-32.3-7.1-48.5,2.8-7.5,2.7-10.2-.3-16.2-2.7-5.2-11.4-14.1-16.5-16.7-1.8-.9-3.2-2.3-3.2-3.1,0-6.6,19.5,9.9,23.6,19.9,2,4.9,2.6,5.3,4.3,3.3,.8-1,.7-2.8-.4-7Zm248.6,84.3c-.5,0-2.8-1.7-5.2-3.8l-4.3-3.9,3.4-1.1c1.8-.7,3.4-1.1,3.4-1,.1,.2,.9,2.4,1.8,5.1h0c.9,2.6,1.3,4.7,.9,4.7Z"/>
  <path class="cls-1" d="M1035.1,618.49h0c8,4,15.4,2.8,22.1-3.7,7.3-7.1,8.7-15.7,3.9-25.1-5.4-10.6-20.7-13.6-29.6-5.8-5.6,4.9-7.7,10-7.2,17.4,.5,7.9,4.2,13.8,10.8,17.2Zm12.2-35.3c6.5,2,13,10.4,13,17,0,5.2-3.5,10.3-10.2,15.2h0c-7.3,5.3-20.6-2.6-22.6-13.4-1.8-9.5,10.8-21.5,19.8-18.8Z"/>
  <path class="cls-1" d="M728.5,433.69h0c5.2,3.3,8.4,2.6,13.5-2.8,2.7-2.8,5.3-6.8,6.4-9.7,2.4-7,4.8-25.8,4.5-35.1l-.3-7.9-5.7-2.9c-7.3-3.6-12.6-3.7-17.9-.2-6.4,4.3-9.8,12.2-11.4,26.6-1.3,11.3,4.3,27.8,10.9,32Zm3.7-55.7c3.6-2.4,4.3-2.5,7.7-1.5,2,.7,5.2,2.1,7,3.2,3,1.8,3.2,2.4,3.2,7.2,0,7.8-2.7,25.6-4.7,31.2-1,2.7-3.5,6.8-5.6,9.2h0c-2.1,2.4-4.7,4.4-5.6,4.4-2.5,0-6.5-4-9.1-9-7.7-15.1-4.2-37.2,7.1-44.7Z"/>
  <path class="cls-1" d="M1014.2,588.69c-1.6,5.3-1.4,16.7,.4,22.8,2.2,7.3,9.3,14.8,16.5,17.2,6.6,2.3,17.8,2.6,24.4,.6,6.7-2,12.9-7.5,16.3-14.4,2.4-5,2.8-6.8,2.8-14.7-.1-10.2-2.2-16.5-7.8-22.4-5.7-6-11.7-8.1-23.3-8.1-9.2,0-10.7,.3-15.5,2.8-6,3.1-12,10.1-13.8,16.2Zm16.8-13.2c7.2-3.8,17.2-3.9,24.6-.4,22.4,10.6,20.4,44.1-3.1,51.2-10.7,3.2-21.2,.4-28.6-7.6-12.7-13.7-9.3-34.7,7.1-43.2Z"/>
  <path class="cls-1" d="M991.1,570.19h-6.5l-.3,28.5c-.1,15.7,0,29,.3,29.7,.3,.9,2.6,1.3,7,1.3h6.5l-.2-29.7-.3-29.8h-6.5Zm.5,56.5c-2,0-3.8-.6-4-1.3-.3-.7-.4-12.7-.3-26.6l.3-25.5h7l.3,26.7h0s.2,26.7,.2,26.7h-3.5Z"/>
  <path class="cls-1" d="M764.6,412.19c9.4,1.1,15.5,3.1,17,5.5h0c.8,1.3,4.3,.4,6.7-1.7,2.4-2.1,3.5-5.6,5.3-15.8,1-6.4,2.6-11.2,5.3-16.5,2.2-4.1,4.2-8.7,4.6-10.2l.6-2.8h-9.2c-15,0-39.5,6.1-38.1,9.5,.4,1.2-1.2,25.8-2,29.8-.1,.7,3.6,1.5,9.8,2.2Zm-6.1-6.4c.3-1.4,.8-7.5,1.2-13.5l.7-10.8,3.5-1.5c6.4-2.7,18.6-5.4,27-6,4.5-.3,8.2-.3,8.2,.1s-1.6,3.7-3.5,7.4c-2.5,4.7-4,9.7-5.3,16.8-1,5.6-2.6,11.3-3.5,12.8h0q-2,3-7.1,.6c-2.3-1-7.7-2.1-12.8-2.5l-8.9-.7,.5-2.7Z"/>
  <path class="cls-1" d="M796.7,402.49c-2.2,12.5-4.6,16.9-10.4,18.7-2.2,.6-2.2,.7,2,6.6,2.3,3.3,7.3,9,11.1,12.6h0l7,6.6,3-5.9c1.9-3.8,6.1-9,11.7-14.6,7.3-7.3,9.3-8.8,11.9-8.8,2,0,3.5,.7,4.3,1.9,1.1,1.8,1.4,1.7,5.8-2.2,5.3-4.8,7.5-5.9,21.5-11.8,10.1-4.1,57.3-27.3,58.8-28.9,1.5-1.4-9.5-4.8-20.9-6.5-8.6-1.3-18.4-1.6-46.9-1.6-19.8,0-38.6,.4-41.7,.7q-5.8,.7-6.9,4.7c-.6,2.3-2.8,7.5-4.9,11.6-2.7,5.4-4.3,10.3-5.4,16.9Zm13.3-25.5c1.1-4,1.2-4,6.6-4.7,8.9-1,71.4-.8,79.5,.4,11,1.5,18,3,18,3.9,0,1.4-46.2,23.9-59,28.8-3.6,1.4-8.6,4-11.3,5.9-4.1,3-5.4,3.4-10.9,3.4h-6.1l-9.2,9.3c-5,5-9.7,10.7-10.4,12.5h0c-.7,1.7-1.6,3.2-2,3.2-.7,0-9-8.5-12.5-12.7-1.8-2.2-1.8-2.3,1.2-5.8,3.4-3.7,4.5-7.1,6.2-18,.7-4.4,2.5-9.8,5-14.6,2.1-4.1,4.3-9.3,4.9-11.6Z"/>
  <path class="cls-1" d="M732.7,395.49c1.2,1.8,2.5,2.2,6.3,2.2,5.7,0,6.1-.7,6.1-10.5,0-7.1-1-8.5-6-8.5-6,0-8,2.2-8,8.8,0,3.6,.6,6.6,1.6,8h0Zm7.9-12.8c1.5,1.3,1.9,5.8,.9,9.8-1.4,4.9-7.4,.8-7.4-5,0-3.6,4.2-6.7,6.5-4.8Z"/>
  <path class="cls-1" d="M741.5,439.49c-2.3,3.6-6,8.7-8.3,11.3-2.3,2.7-4,4.9-3.6,4.9,1.6,0,8.7-5.4,12.1-9.3,4.3-4.9,13.8-22,12.7-23-1.6-1.7-1.7-1.6-12.9,16.1Z"/>
  <path class="cls-1" d="M841.5,424.69c-4.9,7.4-7,23-3.9,29,2.8,5.4,10.2,4.9,22.5-1.6,10.7-5.6,18.7-12.4,34.5-29.1,27.6-29.2,40.1-40.5,48.9-43.8,5.9-2.3,10.7-1.4,14,2.5,3.2,3.9,8.4,17.6,14.5,38.6,6.4,21.9,8.3,26.9,13,34.1,4.6,7.1,6.1,8.3,21.1,15.7,6.3,3.1,11.9,6.1,12.5,6.7h0c1.7,1.7,3.3,1,2.8-1.1-.7-2.6-5-5.9-13.1-9.9-7.6-3.8-14.2-9.6-17.7-15.6-5.7-9.8-13.1-32.7-18.5-57-3.6-16.3-6-22.9-10-27.3-4.4-4.9-7.3-4.4-18.5,3.3-12.8,8.8-72.8,38.8-86.5,43.4-5.1,1.7-12.6,7.5-15.6,12.1Zm107.6-54.3c3-2,6.2-3.7,7.1-3.7,3.5,0,8.6,10.1,11.4,22.4h0c.8,3.8,1.4,7,1.3,7.2-.2,.1-1.6-3.1-3.1-7.3-1.6-4.1-4.1-8.8-5.6-10.5-2.4-2.7-3.6-3.2-9.7-3.7l-6.9-.6,5.5-3.8Zm-32.4,18.6l12.9-6.7-5.9,5.5c-9.7,8.9-16.4,15.5-32.1,32.2-16.5,17.5-24.1,23.8-35.9,29.7h0c-10,5.1-13.1,5.2-15.3,.5-1.4-3-1.5-4.3-.4-10.4,2.2-12.2,9.6-20.4,22.6-25.2,7.4-2.7,36.9-16.6,54.1-25.6Z"/>
  <path class="cls-1" d="M762.8,426.39c5.2,4.9,9.5,8.3,10.8,8.3,3.4,0,6.4-2.8,7.1-6.6,1.3-7.2-3-11-13.8-12-3.5-.2-7.8-.7-9.5-.9-5.4-.6-4.1,2.2,5.4,11.2Zm2.9-7.3c8.9,1.3,13.7,6.1,10.4,10.2-1.9,2.2-3.1,1.6-9.4-4.9l-6-6,5,.7Z"/>
  <path class="cls-1" d="M1245.9,599.99l-.3-29.8h-13l-.3,29.8-.2,29.7h14l-.2-29.7Zm-6.8,26.7h-4l.2-26.7,.3-26.7h7l.3,26.7,.2,26.7h-4Z"/>
  <path class="cls-1" d="M1099.6,610.39c-.7-2.7-.8-2.8-7.4-2.5l-6.6,.3,.1,5.7c.1,7,2.6,11.5,8,14.5h0c3,1.8,5.5,2.3,10.9,2.3,14.2,0,19.5-5.4,19.5-19.7,0-11.1-1.6-13.4-13-18.6-9.3-4.2-10.8-6-7.4-8.8,1.4-1.1,1.9-1,3.5,1,1.1,1.3,1.9,2.9,1.9,3.7,0,1.1,1.7,1.4,7,1.4h7v-4.5c0-6.2-2.2-11.1-6.2-13.5-2.6-1.6-5-2-11.7-2-13.6,0-18.1,4.4-18.1,17.7,0,9.2,2.1,12.5,10.3,16.3,3.4,1.7,6.7,3,7.3,3s2.1,1.1,3.4,2.5c2.2,2.3,2.2,2.5,.6,5-2.9,4.4-7.6,2.4-9.1-3.8Zm6.5-7.2c-5.7-1.7-12.2-5.8-14-8.8-3.9-6.3-1.7-15.9,4.5-19.7,4.4-2.7,12.8-2.7,17.3,0,3.1,1.9,6.2,7.1,6.2,10.5,0,1.1-1,1.5-3.7,1.5-3.3,0-4-.5-5.3-3.3-1.3-2.8-2.1-3.2-5.7-3.5-3.3-.2-4.4,.1-5.7,2-1.7,2.4-2.1,6.5-.8,8.4,.4,.7,4.6,3,9.4,5.2,10.2,4.7,12.8,7.8,12.8,15.5,0,6.9-3.1,12.4-8.3,14.8h0c-10.7,4.8-22.8-1-23.9-11.6-.3-2.8-.1-3,3.4-3.3,3.3-.3,3.7-.1,4.3,2.7,1.4,6.6,9.5,9.2,14,4.6,5-4.9,2.5-12.9-4.5-15Z"/>
  <path class="cls-1" d="M1176.6,570.19l-5.5,.6v29.5h0v29.5l6.8-.3,6.7-.3,.3-11.2,.3-11.3h15.9v23h14v-29.5c0-27.4-.1-29.5-1.7-29.5-1,0-4.2-.3-7-.6l-5.3-.7v24.3h-16v-11.5c0-13.3,.1-13.1-8.5-12Zm16.5,26.5h11v-23.6l3.9,.4,4,.4,.1,26.4,.1,26.4h-8.1v-22.9l-11-.3c-9.2-.2-11-.1-11.1,1.2,0,.8-.1,6-.2,11.5h0s-.2,10-.2,10l-3.7,.3-3.8,.3v-52.9l3.3-.5c1.7-.2,3.6-.2,4,0,.4,.3,.8,5.1,.7,10.6-.1,5.6-.1,10.8-.1,11.5,.1,.9,3,1.2,11.1,1.2Z"/>
  <path class="cls-1" d="M1276.3,615.39c-1.1-1.2-2.5-3.4-3.1-4.9-1-2.7-1.4-2.8-7.7-2.8h-6.7l.5,6.5c.6,7.4,3.4,12.1,9,14.8h0c2.1,1,5.9,1.7,10.2,1.7,13.7,0,19.6-5.8,19.6-19.3,0-9.5-1.7-12.9-8.2-16.6-2.9-1.7-6.5-3.3-7.9-3.6-1.4-.3-3.6-1.5-4.8-2.6-2.1-2-2.1-2.2-.5-4,2.1-2.3,5.1-1,6,2.6,.6,2.4,1,2.5,7.5,2.5h6.9v-4c0-5.4-2.1-10-5.9-13.3-3-2.5-4-2.7-11.9-2.7-14.6,0-18.6,4.2-18,18.6,.3,7.5,.6,8.6,3.1,11.2,1.6,1.6,5.9,4.1,9.6,5.6,8.3,3.2,10.7,5.5,9.2,8.5-2,3.6-4.6,4.3-6.9,1.8Zm-.1-13.6c-8.2-3.1-11.3-6.6-11.9-13.4-.8-10,4.6-15.7,15-15.7,4.7,0,6.2,.5,8.9,2.7,2.9,2.5,5.9,7.7,5.9,10.3,0,.5-1.8,1-4,1-2.9,0-4-.4-4-1.5,0-2.6-3.8-5.5-7.3-5.5-7.4,0-9.9,9.7-3.3,12.8,17.7,8.2,18.6,9,19.4,17.2,.6,7-2.5,13.2-8.2,15.9-10.5,5.1-22.1-.3-24.1-11.1l-.7-3.8h3.6c3.1,0,3.8,.4,4.7,2.8,1.7,4.5,4.9,7.2,8.6,7.2,4.8,0,8.3-3.7,8.3-8.9,0-4.8-2.2-6.8-10.9-10Z"/>
  <path class="cls-1" d="M823.1,606.69v23.1l6.8-.3,6.7-.3,.3-22.7,.2-22.8h10.1l-.3-6.7-.3-6.8-16.8-.1c-9.2,0-17,.3-17.3,.8-.3,.5-.3,3.6,.1,6.9l.7,5.9h9.8v23h0Zm-2-26c-5.4,0-5,.6-5-6.6,0-.4,6.2-.6,13.8-.6h13.7l.3,3.6,.3,3.6h-10.1l-.2,22.8h0s-.3,22.7-.3,22.7l-3.7,.3-3.8,.3v-46.1h-5Z"/>
  <path class="cls-1" d="M934.3,629.49c15.2-.3,16.6-.5,21.3-3,6.1-3.1,7.8-4.9,10.7-11.3,1.9-4.2,2.3-6.6,2.2-15,0-11-1.2-15-6.4-21.5-5-6.3-10-7.7-28-8.1l-15.5-.4-.3,29.9h0l-.2,29.8,16.2-.4Zm-13-29.3l.3-26.7,12.4,.1c10.2,.2,13.4,.6,17.3,2.3,5.2,2.2,9.8,7.2,12.5,13.5,2.4,5.8,2.2,16.7-.5,22.8-2.9,6.4-4.6,8.2-10.7,11.3h0c-4.5,2.3-6.4,2.6-18.3,3l-13.2,.4,.2-26.7Z"/>
  <path class="cls-1" d="M869.5,628.79c2.7,1.2,6.5,1.9,11.1,1.9,9.1,0,15-2.7,18.2-8.5,2.2-3.8,2.3-5,2.3-28.3v-24.3l-6.7,.3-6.8,.3-.5,21.1c-.4,19-.7,21.4-2.4,23.3-2.6,2.8-5.7,2.6-8.7-.5-2.3-2.5-2.4-3.1-2.9-23.2l-.5-20.7h-13l-.3,20.5c-.3,28.6,1.1,34,10.2,38.1h0Zm-7.2-38.1l.3-17.4h7l.5,20.8,.5,20.8,3.4,3c2.9,2.6,3.9,3,7.4,2.5,2.2-.3,4.9-1.5,6.1-2.6,2-2,2.1-3.5,2.6-23.3l.5-21.2,3.8-.1,3.7-.2v21.1c0,20-.2,21.3-2.3,25.1-1.4,2.6-3.7,4.8-6.7,6.3h0c-5.4,2.7-11.1,2.8-16.6,.3-8.9-4-10.6-9.9-10.2-35.1Z"/>
  <path class="cls-1" d="M954.8,611.79c4.5-6.7,4-17.9-1.2-24.7-3.6-4.7-8.1-6.4-16.9-6.4h-7.6v19.6h0v19.7l8.3-.5c9.5-.5,13.8-2.4,17.4-7.7Zm-22.7,4.9v-33h4.6c8.3,0,14.5,4.7,17.3,12.9,2.4,7.3-3.3,16.7-11.4,19-2.2,.6-5.5,1.1-7.2,1.1h-3.3Z"/>
  <path class="cls-1" d="M731.6,606.19l10.2-.3c11.6-.3,11.8-.5,11.1-8.8l-.3-3.9-10.7-.3-10.8-.3v-8.9h20.8l.7-5.9c.4-3.3,.5-6.4,.2-6.8s-8.1-.8-17.4-.8h-16.8l-.3,29.8h0s-.2,29.7-.2,29.7h34v-13h-21.1l.3-5.2,.3-5.3Zm7,13.5h10.5v3.5h0v3.5h-28l.2-26.6,.3-26.6h13.5c7.4,.1,13.6,.4,13.8,.7,.1,.3,.2,1.9,.2,3.5v3h-21.1l.3,7.6,.3,7.6,10.5,.2c11.3,.1,10.8-.2,10.1,5.6,0,.5-4.7,1.1-10.3,1.2l-10.3,.3-.3,8.3-.3,8.2h10.6Z"/>
  <path class="cls-1" d="M1317.8,628.99h0c.3,.4,3.5,.7,7,.7h6.3v-46h10v-13.5h-33.5v13l4.8,.3,4.7,.3v22.3c0,12.2,.3,22.6,.7,22.9Zm-2.4-48.5c-4.7-.3-4.8-.4-4.8-3.7v-3.4l13.7-.1,13.8-.1v7.5h-10v46h-3.3c-1.9,0-3.7-.3-4-.7-.4-.3-.7-10.7-.7-22.9v-22.3l-4.7-.3Z"/>
  <path class="cls-1" d="M416,581.69c-4.6,2.4-9.4,9.3-10.4,14.9-1.4,8.2,3.6,18,11.3,22.1h0c6.6,3.5,16.3,2,22-3.3,10.2-9.5,7.8-27.8-4.2-33.7-5.6-2.7-13.4-2.6-18.7,0Zm25.8,16.8c.9,6.7-4.3,14.5-11.9,17.7h0c-4.8,2-5.5,1.9-10.2-.8-6-3.4-9.8-8.7-10.3-14.4-.4-4.1,0-5.5,2.6-9.5,3.1-4.8,9.1-8.8,13.2-8.8,7,0,15.6,8.1,16.6,15.8Z"/>
  <path class="cls-1" d="M190.1,583.69h21v-13.5l-17-.1-17-.1v29.8h0v29.9h34v-13h-21.1l.3-5.2,.3-5.3,10.3-.3,10.2-.3v-12.9h-21v-9Zm7.5,12h10.5v6.9l-10.2,.3-10.3,.3-.3,8.3-.3,8.2h21.1v3.5h0v3.5h-28v-53.5h28v7.5h-21v15h10.5Z"/>
  <path class="cls-1" d="M264.3,586.79c3.3,2.6,4.4,2.9,11.2,2.9h7.6v-3.3c0-4.6-5.5-10.8-12.7-14.3-4.8-2.4-6.8-2.8-14.8-2.8s-10,.4-14.8,2.8c-6.8,3.3-12.1,9.1-14.3,15.8-2.2,6.6-1.6,21.7,1,26.8,3.5,6.8,10.5,12.8,17.6,15.1h0c1.4,.5,6.8,.7,12,.5,10.8-.3,15.5-2.1,21.4-8.2,2.9-3,3.6-4.5,3.6-7.6v-3.8h-7.4c-5,0-7.9,.5-8.8,1.4-.8,.7-3.3,2.3-5.5,3.4-5.3,2.7-9.9,1.6-15.2-3.7-7.4-7.4-7.7-14.8-1.1-22.4,6.7-7.6,13-8.4,20.2-2.6Zm-24.6,1.3c-2.6,3.1-3.1,4.7-3.4,10.4-.3,5.6,0,7.4,2,11.2,5.1,9.4,16.1,13.4,24.8,9,2.4-1.2,5-2.9,5.8-3.6,1.4-1.5,10.2-2,10.2-.6,0,1.7-7.1,8.2-11.1,10.3h0c-4.5,2.2-15.8,3.4-19.9,2-7.1-2.3-14.1-8.4-17.5-15.1-2.6-5.1-3.1-14.7-1.1-20.7,6.6-19.9,33.4-25,47.1-9l3.6,4.2-4.5,.3c-3.9,.3-5.2-.2-8.7-3-3.8-3.1-4.6-3.3-11.4-3.3-8.2,0-10.4,1.1-15.9,7.9Z"/>
  <path class="cls-1" d="M380.1,600.19v-29.5l-2.3-.5c-1.3-.4-4.3-.5-6.8-.3l-4.4,.3-.3,29.8-.2,29.7h14v-29.5Zm-3,26.5h-8l.2-26.7,.3-26.8,3,.1c1.7,.1,3.3,.2,3.8,.3,.4,.1,.7,12,.7,26.6v26.5Z"/>
  <path class="cls-1" d="M322.2,583.19c3.8-.9,9,.9,11.9,4,2.1,2.2,3.1,2.5,10.2,2.5h7.8v-3.5c0-4.5-5.2-10.4-12.3-13.9-4.3-2.2-6.4-2.6-14.2-2.6-15.2,0-22.9,4.1-28.2,14.8-2.5,5.1-2.8,6.7-2.8,15.7,.1,8.4,.5,10.8,2.4,14.8,2.9,6,10,12.3,16,14.2,3,1,7.7,1.4,13.6,1.2,7.7-.2,9.7-.7,14.3-3.2,7.2-3.9,10.2-7.6,10.2-12.6v-3.9h-7.1c-5.9,0-7.5,.4-10.2,2.4-5.7,4.4-8.3,4.9-13.4,2.6-5.4-2.4-8.7-5.9-10.9-11.7-1.6-4-1.6-4.6,0-8.8,2-5.1,8.3-11.1,12.7-12Zm-3.7,36c6,2.3,11.7,1.5,17.3-2.4,3.1-2.2,5.5-3.1,8.3-3.1,2.2,0,4,.4,4,.9,0,2-5.1,6.8-10,9.5h0c-10.2,5.5-22.6,4.2-31.2-3.4-6.4-5.5-9.1-11.7-9.2-20.5-.1-5.8,.4-8,2.7-12.7,4.9-9.9,13.2-14.8,25.2-14.8,7.6,0,14.7,3.3,20.2,9.3l3.8,4.2-4.8,.3c-4.1,.3-5.3-.1-8.2-2.7-6.1-5.3-16.9-5.5-23.3-.4-12.8,10.2-9.9,30.1,5.2,35.8Z"/>
  <path class="cls-1" d="M153.5,608.29c4.1-1,8.3-6.9,9.1-12.5,1.5-11.3-1.7-20-8.8-23.5-3.1-1.5-6.4-1.8-18-2l-14.2-.1-.3,29.8-.2,29.7h14v-16.5l5.7,8.3,5.7,8.2h15.6v-3.2c0-2.2-1.5-5.2-5.5-10.4-5.2-7-5.3-7.2-3.1-7.8Zm4.9,17.2c.7,.9-.2,1.2-4,1.2h-4.9l-8.4-12.1-8.5-12.1-.3,12.1h0l-.3,12.1h-7.9l.2-26.7,.3-26.7,11.4,.2c13,.2,17.2,1.6,20.7,6.9,6.3,9.4,2.2,22.5-7.8,25.5-2.1,.6-3.8,1.3-3.8,1.5,0,.3,7.5,10.5,13.3,18.1Z"/>
  <path class="cls-1" d="M74.8,604.19c1.2-14.8-3.7-25.8-13.9-30.8-5.4-2.8-6.3-2.9-21-3l-15.3-.2-.3,29.8-.2,29.7h13.2c16.7,0,19.6-.5,26-4.4,6.8-4.1,10.6-11,11.5-21.1Zm-34.4,22.3l-13.3,.4,.2-26.7,.3-26.7,12.5,.1c11.5,.1,12.8,.3,18,2.8,17.7,8.9,18.3,36.9,1,46.7h0c-5.2,2.9-6.1,3.1-18.7,3.4Z"/>
  <path class="cls-1" d="M60.7,588.59c-3.8-5.7-8.9-7.9-18.1-7.9h-7.5v39h6.3c11.8,0,18.2-3.5,21.3-11.5,2.3-6.1,1.4-14.4-2-19.6Zm-1.4,17.3c-2.3,5.2-4.8,7.5-9.9,9.4-2.1,.7-5.5,1.3-7.5,1.4h-3.8v-33h4.5c12.3,0,21.3,12,16.7,22.2Z"/>
  <path class="cls-1" d="M148.6,583.09c-2.1-2.1-3.3-2.4-9.5-2.4h-7v10.1h0v10.1l6.5-.4c12.5-.8,17.7-9.7,10-17.4Zm-3.5,11.8c-1.4,1-4.2,2.1-6.3,2.5l-3.7,.6v-14.3h4c3,0,4.7,.7,6.6,2.5,3.1,3.1,2.8,6.1-.6,8.7Z"/>
  <path class="cls-1" d="M97.8,629.69h6.3v-58.9l-5.5-.6c-9.1-1.2-8.5-3.4-8.5,29.3,0,15.9,.3,29.2,.7,29.5,.3,.4,3.5,.7,7,.7Zm-3.9-56.3c.4-.3,2.2-.2,4,0l3.2,.5v26.4h0v26.4h-3.3c-1.9,0-3.7-.3-4-.7-1-.9-.9-52.1,.1-52.6Z"/>
  <path class="cls-1" d="M619.8,603.99c1.2-14.5-3.8-25.7-13.7-30.5-5.1-2.5-6.6-2.7-21-3l-15.5-.3-.3,29.8-.2,29.7h14.5c15.8,0,21.3-1.2,27.4-5.7,4.5-3.5,8.1-11.6,8.8-20Zm-20,21.1h0c-3.3,1.1-8.4,1.6-16.3,1.6h-11.4l.2-26.7,.3-26.7,12.5,.3c10.6,.2,13.3,.6,17.6,2.5,8.8,4,13.7,12.7,13.8,24.1,0,12.7-5.7,21.2-16.7,24.9Z"/>
  <path class="cls-1" d="M824.1,443.09c-.6,1.6-2,4.2-3.1,5.8-2.4,3.3-2.4,3.2,1.6,4.6h0c5.5,1.9,5.7,1.7,5-4.5-1-7.9-2-9.7-3.5-5.9Z"/>
  <path class="cls-1" d="M952.6,443.39c-2.7,.8-2.8,.9-2.1,3.5,1.2,4.4,5.8,8.1,19.4,15.2,7.5,4,13.9,6.8,14.1,6.4,.5-1.4-3.1-4.8-7.4-7-8.5-4.3-17.1-10.7-19.5-14.7-1.9-3.1-2.9-3.9-4.5-3.4Z"/>
  <path class="cls-1" d="M439.1,561.49c0-6-1.4-7.8-6.1-7.8-2.9,0-6,1.1-11,4q-6.9,4.1-6.9,8.5c0,4-.2,4.4-2.9,5-4.3,.9-11.6,7.8-14.5,13.7-2.2,4.4-2.6,6.5-2.6,14.3,0,5.1,.5,10.7,1.2,12.6,2.8,8.1,9.2,14.5,17.5,17.5,5.8,2,18.2,1.8,24.5-.6,6.3-2.3,12.8-8.5,15.7-15,2.6-5.6,2.9-19.6,.6-26.1-3.1-8.5-10.3-15.1-19.1-17.4l-4.5-1.1,4-1.9c3.8-1.7,4.1-2.1,4.1-5.7Zm14,39.1c-.1,10.7-7.6,21.3-17.8,25.1-11.9,4.5-25.8,.3-32.5-9.8-7.9-12.2-5.9-27.5,4.8-37,5.2-4.6,10-6.2,18.7-6.2,15.3,0,26.8,12,26.8,27.9Zm-25-34.1l-8,4.2-1.2-2.6c-1.4-3-.5-3.9,8.8-8.9,5.4-2.9,5.6-3,7-1.1,.8,1.1,1.4,2.5,1.4,3,0,.6-3.6,3-8,5.4Z"/>
  <path class="cls-1" d="M955,405.79c-5.9,.8-9.6,2-12.7,4-8.1,5.1-16.6,7.4-27.2,7.2l-9.5-.1-14.5,14.7c-13.8,14-23.6,21.7-31.7,25-1.8,.8-3.3,1.7-3.3,2.2h0c0,.5,1.9,.7,4.3,.4,2.3-.2,8.5-.7,13.8-1,9.7-.5,26.7-3.2,38.9-6.1,19.7-4.7,58-18.6,58-21.1,0-1.3-6.9-25.5-7.5-26.1-.2-.2-4,.2-8.6,.9Zm11.4,24c-1.4,1.2-29.4,11.6-39.8,14.7-13.3,4-20.7,5.7-34.5,8.1h0c-6.3,1.1-14,2.2-17,2.6l-5.5,.6,5-3.2c2.8-1.8,11.4-9.8,19.2-17.7l14.3-14.5,9.7-.1c11-.2,19.7-2.6,27.6-7.6,2.8-1.7,6.6-3.1,10-3.5l5.6-.7,2.1,7.3c1.2,4.1,2.5,8.7,3.1,10.3,.5,1.7,.6,3.3,.2,3.7Z"/>
  <path class="cls-1" d="M954.1,391.09c1.9-5.3,2-5.8,.4-7.5-1.8-2-6.7-2.5-10.6-1-1.3,.5-4.8,2.7-7.8,5-6.3,4.7-26,23.8-26,25.2,0,.5,2.8,.9,6.3,.9,16.6,0,32.8-9.8,37.7-22.6Zm-34.4,17.4c7.1-8.1,22.6-21.2,27.2-22.9,4.9-1.9,5.6,1.7,1.6,7.7-4.8,7.3-12.6,12.6-23.3,15.8h0c-7.1,2.1-7.8,2-5.5-.6Z"/>
  <path class="cls-1" d="M833.2,438.49c1.7-9.9,1.8-17,.1-17.6-2-.6-18.4,16.6-21.1,22.1-2.1,4.4-2.2,5-.8,6.4,1.4,1.4,1.8,1.5,3.9,.1,1.3-.9,3.8-4.4,5.6-7.9,1.8-3.5,4.3-7.7,5.6-9.2l2.3-2.9,1.2,10.9c.6,5.9,1.7,12.4,2.3,14.3,1.5,4.8,6.7,11.1,13.8,16.5,3.2,2.5,6.8,6.1,8,8h0c1.2,2,2.4,3.4,2.7,3.1,1.2-1.2-3.5-7.1-11.2-14.2-12.4-11.2-14.7-16.5-12.4-29.6Z"/>
  <path class="cls-1" d="M648.1,583.69h20.8l.7-6.1c.4-3.3,.4-6.3,.1-6.7-.4-.3-8.3-.7-17.6-.8l-17-.1v29.8h0v29.9h34v-13h-21.1l.3-5.2,.3-5.3,10.3-.3,10.2-.3v-12.9h-21v-9Zm7.5,12h10.5v6.9l-10.2,.3-10.3,.3-.3,8.3-.3,8.2h21.1v7h-28v-53.5l14,.2c7.7,.1,14,.4,14,.7v6.6h-21v15h10.5Z"/>
  <path class="cls-1" d="M587.9,580.69h-7.8v39h6.3c7.8,0,12.8-1.4,16.6-4.6,6.8-5.7,8.1-18.8,2.5-26.6-4.3-6-8.3-7.8-17.6-7.8Zm17.8,21.4c-.9,4.5-4.4,9.6-8.3,11.9h0c-1.8,1-5.7,2.1-8.8,2.4l-5.5,.6v-33.5l5.9,.4c4.4,.3,6.8,1.1,9.4,3.1,4.7,3.5,8.1,10.7,7.3,15.1Z"/>
  <path class="cls-1" d="M485.1,613.49v-16.1l10.2,16.1,10.3,16.2h14.5v-59l-2.3-.5c-1.3-.4-4.3-.5-6.8-.3l-4.4,.3-.5,15.7-.5,15.8-2.9-4.8c-1.7-2.6-6.3-9.8-10.3-16l-7.3-11.3-6.7,.3-6.8,.3-.3,29.8-.2,29.7h14v-16.2Zm-3-7.5h0v20.7h-8l.2-26.7,.3-26.7,3.9-.1,3.9-.1,7.2,11.1c3.9,6,9.6,14.9,12.6,19.7,2.9,4.8,5.7,8.7,6.1,8.8,.4,0,.9-8.9,1-19.7l.3-19.7,2.8,.1c1.5,.1,3.2,.1,3.7,.2,.6,.1,1,9.7,1,26.6v26.5h-8.5l-10-15.7c-5.5-8.7-11.5-18-13.2-20.8l-3.3-5v20.8Z"/>
  <path class="cls-1" d="M981.7,416.59c2.9,9.9,3.7,10.3,8.3,4.5,2.6-3.3,2.7-6.6,.3-8.7-1.9-1.7-10.4-5.8-11-5.2-.2,.2,.9,4.4,2.4,9.4h0Zm5.1-1.6c1.2,1.2,1.4,2,.6,2.8-.7,.7-1.2,.6-1.7-.6-1.1-3-.6-4,1.1-2.2Z"/>
  <path class="cls-1" d="M784.4,630.69c8.4,0,12.9-1.9,16.3-6.9,2.1-3.1,2.4-4.7,2.4-11.9,0-12.3-2-15.3-13.4-19.9-8-3.2-9.9-5.4-7.4-8,1.6-1.6,1.9-1.6,3.7,.1,1.1,1,2.3,2.7,2.6,3.7,.5,1.6,1.7,1.9,7.1,1.9h6.4v-5.2c0-6.3-2.5-11-7.1-13.3-2.4-1.3-5.2-1.6-12-1.3-8.1,.3-9,.5-11.8,3.2-4,3.8-5.4,8.4-4.9,16,.5,8.4,2.9,11.6,11.5,15.2,11.7,4.9,13.6,7,9.4,10.8-2.9,2.6-5.4,1.6-7.6-3.1l-1.9-4.3h-12.6v5.8c0,7.5,2.4,12,8,14.9h0c3.3,1.8,6,2.3,11.3,2.3Zm-16.3-17.2c0-2.5,.4-2.8,3.4-2.8s3.6,.4,4.6,3.5c3.3,9.9,16.5,7.9,16.5-2.5,0-5-1.1-5.9-11.4-10.2-3.6-1.5-7.6-4-8.8-5.5-4.7-5.7-3.9-14.4,1.7-19.8,3.8-3.7,12.8-4.7,17.9-2.1,3.6,1.9,7.1,7,7.1,10.4,0,1.8-.5,2.2-3.2,2.2-2.6-.1-3.7-.8-5.3-3.3-1.7-2.6-2.8-3.3-6.2-3.5-3.3-.2-4.4,.1-5.7,2-2.1,3-2,7.1,.2,9.2,1.1,.9,4.7,2.7,8.2,4.1,10,3.9,13,7.7,13,16.7,0,6.4-3.1,11.7-8.3,14.2h0c-10.2,4.8-23.7-2.4-23.7-12.6Z"/>
  <path class="cls-1" d="M1484.1,629.69h13v-60.1l-6.2,.3-6.3,.3-.3,29.8h0s-.2,29.7-.2,29.7Zm3.2-29.7l.3-26.6,3.3-.2,3.2-.1v26.8h0v26.8h-7l.2-26.7Z"/>
  <path class="cls-1" d="M538.1,512.89l136-.2v-14.5c0-9-.4-14.5-1-14.5H402.2c-.9,0-1.5,25.7-.6,28,.4,1.3,18,1.5,136.5,1.2Zm-133.4-23.1l.7-3.1h265.7v11.5h0v11.5h-132.8c-73.1,0-133.2-.3-133.5-.7-.9-.8-.9-15-.1-19.2Z"/>
  <path class="cls-1" d="M1545.9,583.09c1.1,.4,3.7,2,5.7,3.6,3.4,2.7,4.5,3,11.1,3h7.4v-3.2c0-3.9-3-8.5-7.9-11.9-5.8-4.2-10.3-5.2-21.4-4.7-9,.3-10.8,.7-14.9,3.2-20.7,12.2-17.2,49.2,5.2,56.1h0c6.1,1.8,17.5,1.8,23.8,0,7.3-2.2,15.2-9.9,15.2-14.9v-3.6h-7.6c-6.5,0-8,.3-10.9,2.5-7.1,5.5-13.7,4.6-20.2-2.8-4.7-5.4-5.9-9.9-3.8-15.2,3-7.9,12.3-14,18.3-12.1Zm-15.5,32.3c7.1,6.3,16,6.7,23.7,1.2,3.4-2.5,4.9-3,8.8-2.7l4.7,.3-5.3,5.2c-3.8,3.8-6.7,5.7-10.4,6.8-13.9,4.1-27.2-1.4-33.2-13.8-3.5-7.1-4.2-13.1-2.3-19.8,3.5-12,12.1-18.9,24.3-19.7,10.6-.7,19,2.8,24.3,10.2l2.1,3.1-4.1,.3c-2.7,.2-4.9-.3-6.6-1.5-6.8-4.8-8-5.3-13-5.3-6.3,0-9.9,1.3-13.7,4.8-8.9,8.3-8.6,22.7,.7,30.9Z"/>
  <path class="cls-1" d="M1469.1,589.99c0-7.6-2.4-13.6-6.7-16.8-2.3-1.6-5.2-2.1-17.8-2.7-8.2-.4-15.6-.6-16.2-.3-1,.3-1.3,7.3-1.3,30v29.5h13.9l.3-8.1,.3-8,5.5,7.8,5.6,7.8,7.7,.3,7.7,.3v-3.5c0-2.6-1.2-5.1-5-10.2-2.8-3.6-5-6.7-4.8-6.8,8.5-5,10.8-9,10.8-19.3Zm-10.8,26.7l7.1,9.5-3.7,.3c-2.1,.2-4.4,.1-5-.1-.7-.3-5-5.8-9.7-12.2l-8.4-11.8-.3,12.2h0s-.3,12.1-.3,12.1h-7.9v-26.4c0-14.6,.3-26.7,.8-26.9,.4-.2,6.3-.1,13.2,.2,14.2,.7,16.5,1.7,20,8.7,2.4,4.8,2.6,10.1,.5,15.1-1.7,4.1-4,6.1-9.7,8.3l-3.8,1.6,7.2,9.4Z"/>
  <path class="cls-1" d="M1182.3,512.99c74.4-.2,135.6-.3,136.1-.3,.4,0,.6-6.5,.5-14.5l-.3-14.5h-271l-.3,14.7h0l-.2,14.8,135.2-.2Zm-132.2-14.8v-11.5h266v23h-266v-11.5Z"/>
  <path class="cls-1" d="M1039.1,516.69v8.3c0,4.6,.3,8.7,.7,9,.3,.4,152.2,.7,337.5,.7h336.8v-18h-675Zm672,9v6h-333.8c-183.6,0-334.2-.3-334.5-.7-.4-.3-.7-3-.7-6v-5.3h669v6Z"/>
  <path class="cls-1" d="M1093.6,421.19l7.9,.3,7.8,.3-.7-11.3c-2.1-34.1-10.2-65-25-95.3-32.6-66.6-94.9-115.6-167-131.4-37-8.1-78-7.4-114.3,1.9-82.6,21.1-150.6,86.5-174.4,168-5.3,18.1-9.8,46.4-9.8,61.2h0s0,6.8,0,6.8h14.7l.7-10.2c3.2-47.1,17.8-88.2,44.1-123.8,38.9-52.8,96.1-85.8,161.4-93.1,13.6-1.5,48.5-.6,61.1,1.5,34.6,6,63,17.3,92,36.7,59,39.5,97.2,106.1,100.8,175.9l.7,12.5Zm-98.5-191.4c-29-19.4-57.3-30.7-92-36.7-12.5-2.2-53.1-3.1-67.2-1.5-65.2,7.3-122.5,40.3-161.3,93.1-26.3,35.6-40.9,76.7-44.1,123.8l-.7,10.2h-8.7v-3.8c0-11.9,5-41.8,9.8-58.2,19-65,65.9-120.4,127.7-150.6,34.6-16.8,68.6-24.8,105.5-24.7,91,.2,176,54,216.5,136.8,14.3,29.3,22.6,59.9,24.9,92.8l.6,7.8-4.8-.3-4.7-.3-.7-12.5c-3.6-69.8-41.8-136.4-100.8-175.9Z"/>
  <path class="cls-1" d="M445.1,421.69h118v-6.2c0-25.2,6.3-59.9,16-88.7,17.8-53,52.2-102.2,96-137.4,43.3-34.9,97.6-57.6,153.6-64.2,27-3.2,66-1.7,92.5,3.5,90.7,18.1,167.1,75.5,209.4,157.5,20,38.7,30.1,77.1,33.1,125.8l.6,9.7h115.1l-.7-15.2c-4.1-92.2-36-176-94.3-247.6-11.8-14.6-45.2-47.6-59.8-59.3-40.5-32.3-83-55.7-130-71.4C909.7-.21,816-.31,730.8,27.79c-137.7,45.6-242.4,160.4-275.1,301.9-5.9,25.8-10.6,62.2-10.6,83.3h0v8.7Zm3-8.7c0-18.2,5-56.2,10.6-80.3,18.5-80.1,59.4-151.4,119.7-208.7,62.7-59.6,141.8-97.8,228.2-110.2,100.5-14.4,206.7,11.6,291.5,71.2,20.4,14.3,35.1,26.8,55.1,46.7,27.7,27.6,45.4,50.1,64,81.2,35.3,58.9,54.4,122.4,58.5,193.6l.7,12.2h-109.1l-.6-9.7c-3-48.7-13.1-87.1-33.1-125.8-36.2-70.3-98.6-123.6-173-147.8-33.8-11.1-58.6-14.8-97-14.9-34.3,0-58,3.2-87.5,11.7-35.7,10.3-74.7,30.6-104,54.2-43.8,35.2-78.2,84.4-96,137.4-9.7,28.8-16,63.5-16,88.7v6.2h-112v-5.7Z"/>
  <path class="cls-1" d="M6.6,517.19l-.2,8c-.1,4.4,.1,8.3,.3,8.7,.3,.5,152.1,.8,337.5,.8h336.9v-18l-337.2,.2-337.3,.3Zm671.5,2.5v12H10.4l-.6-3c-.4-1.6-.4-4.3,0-6l.6-3H678.1Z"/>
  <path class="cls-1" d="M590.5,421.69h23.4l.7-10.2c4-60,24.1-109.3,62.3-152.9,40.4-46.2,98.1-75.9,160.7-82.9,13.6-1.5,41.7-1.2,55.7,.6,38.7,4.9,74.1,17.7,105.3,38.1,69.1,45.3,110.6,118.4,113.8,200.8l.2,6,23.8,.3,23.7,.2v-6.7c0-15.4-3.6-42.4-8.1-61.1-24.1-100.3-99.7-181.6-197.9-213-95.2-30.4-198-11.3-277,51.4-11.8,9.4-36,33.8-45.9,46.3-34.6,43.7-56.1,95.3-62.5,150.2-1.2,9.8-2.1,27.4-1.7,32.2h0c.1,.4,10.6,.7,23.5,.7Zm-20.4-9.8c0-9.4,2.6-30.3,5.5-44.7,9.2-45.7,29.2-88.6,58.6-125.6,9.9-12.5,34.1-36.9,45.9-46.3,46.2-36.6,98.7-58,157.5-64.1,42.9-4.4,89.6,2.4,132.5,19.5,89.4,35.6,156.5,112.9,178.9,206.2,4.1,17,8.1,45.6,8.1,58.1v3.7l-20.7-.2-20.8-.3-.2-6c-1.5-39-12.3-78.4-30.4-111-13-23.6-26.5-41.1-46-60-39.1-37.8-87.7-61-142.7-67.9-14.2-1.8-47.8-2.1-61.7-.6-62.6,7-120.3,36.7-160.7,82.9-38.2,43.6-58.3,92.9-62.3,152.9h0s-.7,10.2-.7,10.2h-40.8v-6.8Z"/>
  <path class="cls-1" d="M1627.1,628.29c4.9-2.5,10.8-8.3,13.3-13.1,2.9-5.6,3.6-20.3,1.3-27.3-2.2-6.5-7.4-12.4-13.8-15.6-4.6-2.3-6.4-2.6-15.2-2.6-11.6,0-17.6,2.1-23.3,8.1-5.7,6.1-7.8,12.1-7.6,22.7,.1,8.2,.4,10,2.9,15,3.2,6.2,10.4,12.4,16.3,14.1h0c5.8,1.6,22,.8,26.1-1.3Zm-31.5-6.4c-12.9-9.8-14.4-29.2-3.2-41.1,10.8-11.4,30.9-10.8,41.2,1.1,6.6,7.8,8.4,21.1,4,29.8-2.4,4.9-8.3,10.8-13,13.2-4.6,2.4-15.1,3.3-20.6,1.7-1.9-.6-5.7-2.7-8.4-4.7Z"/>
  <path class="cls-1" d="M419.6,425.19l-.3,18c-.1,9.8,0,18.5,.2,19.2,.4,1.1,23.6,1.3,119.6,1.3h119v-39l-119.2,.2-119.3,.3Zm235.5,2.5v33h-116c-94,0-116.2-.2-116.6-1.3-.2-.7-.3-8-.2-16.2l.3-15,116.3-.3,116.2-.2Z"/>
  <path class="cls-1" d="M1606.6,619.89c6.4,2,15.7-.4,20.2-5.3,8.3-9.1,6.6-25.1-3.4-31.9-3.1-2.1-4.8-2.5-11.3-2.5-6.9,0-8,.3-11.4,2.9-4.2,3.2-8.6,11.4-8.6,16.1,0,9.3,6,17.9,14.5,20.7h0Zm-10.5-17.2c-.8-2.8-.5-4.3,1.4-8.5,6.5-14.2,21.7-14.9,29.1-1.4,3,5.5,3.1,8,.6,13.4-2.2,4.8-5.4,7.9-10.3,10h0c-4,1.6-4.3,1.6-7.3,.7-6.3-2.1-11.6-7.7-13.5-14.2Z"/>
  <path class="cls-1" d="M1668.5,611.59c-1.1-3.4-1.2-3.4-7.8-3.7l-6.6-.3v5.2c0,7.5,3,13.2,8.3,15.8h0c5,2.5,15.9,2.9,21.1,.7,5.6-2.4,8.8-7.6,9.4-15.5,.8-12-2.9-17.8-14.5-22.1-8.5-3.2-9.7-4.5-6.8-7.4,2.1-2,4-1.1,5.5,2.5,1.2,2.8,1.4,2.9,8.3,2.9h7l-.7-5.7c-1.3-10.7-5.8-14.3-18.1-14.3-9.2,0-13.3,1.8-16,7-3.8,7.3-2.8,18.5,2,23.1,1.5,1.3,5.8,3.8,9.7,5.4,7.8,3.3,9.9,5.5,8.2,8.2-3,4.9-7.1,4.1-9-1.8Zm12.1-4.6c-.8-1.1-4.5-3.3-8.2-4.8-8-3.2-12-6.6-13.3-11.5-2.5-9.4,4.3-18,14.3-18,7.8,0,13.2,3.8,14.7,10.4l.8,3.6h-3.8c-3,0-4-.5-4.5-2-1-3.3-3.4-5-7-5s-6.2,1.9-7.1,5.6c-1,3.8,1.8,6.8,8.6,9.3,7.4,2.7,12.5,7,14.1,11.8,2.4,7.4-1.7,17-8.7,19.9-8.1,3.4-17.9,.2-21.3-7-1.2-2.3-2.1-5.2-2.1-6.5,0-2,.4-2.2,3.7-1.9,3.2,.3,3.8,.7,4.5,3.5,1.7,6.6,8.9,8.4,13.9,3.4,3.2-3.3,3.8-7.4,1.4-10.8Z"/>
  <path class="cls-1" d="M1301.1,463.69v-39l-119.2,.2-119.3,.3-.3,19.3-.2,19.2h239Zm-235.8-19.2l.3-16.3,116.3-.3,116.2-.2v33h-233l.2-16.2Z"/>
  <path class="cls-1" d="M1523,509.69h-196.9v-23h9v-26h-27v-41.9l-11.2-.3-11.3-.3-.7-17.5c-3.2-85.6-35.1-171.7-88.7-239.5-15.6-19.7-40.3-45.5-58.6-61-61.5-52.3-138-86.2-217.8-96.5-115.7-14.8-229.1,15.2-318.1,84.3-56.8,44.1-102.5,103.3-130,168.5-19.5,46.4-30.6,95.5-32.4,143.7l-.7,18-12.7,.3-12.8,.3v41.9h-28.1l.3,12.8,.3,12.7,4.8,.3,4.7,.3v22.9l-197.2,.2-197.3,.3-.3,15.3h0l-.3,15.2H688.2l-.3-15.2-.3-15.3-3.7-.3-3.8-.3v-22.9h7v-26h-22v-42h-25.3l.7-9.2c2.3-30.7,12.1-64.4,26.4-90.7,10.2-18.8,27.7-41.8,42.5-55.8,38.1-36,84.6-57.1,137.7-62.3,32.3-3.2,72.2,3.9,106,19,52.9,23.6,95.9,68.1,117.4,121.7,9,22.4,13.3,41.4,16.1,70.6l.7,6.7h-31.2v42h-23.1l.3,12.8,.3,12.7,3.3,.3,3.2,.3v22.9h-7v31h686.7l.5-14.7c.3-8.2,.4-15.1,.1-15.5-.2-.5-89-.8-197.4-.8Zm194.3,15.9l-.3,12.1h-680.9v-25h7v-14.5c0-13.8-.1-14.5-2-14.6-1.1-.1-2.6-.2-3.2-.3-.9-.1-1.4-3-1.6-9.8l-.3-9.8h23.1v-42h31.3l-.7-10.2c-2.9-42.7-14.6-78.3-36.9-112.6-23-35.2-58-64.9-96.7-82.2-70.9-31.6-152.2-25.1-217,17.4-59.8,39.2-97.8,104.9-101.6,175.4l-.7,12.2h25.3v42h22v20h-7.1l.3,14.7,.3,14.7h3.5l3.5,.1,.3,12.3h0s.3,12.2,.3,12.2H3l.3-12.2,.3-12.3,197.3-.3,197.2-.2v-28.9l-4.7-.3-4.8-.3-.3-9.7-.3-9.8h28.1v-41.9l12.8-.3,12.7-.3,.7-18c3.4-92.2,39.7-183.1,101.6-254.5,10.9-12.6,33.7-35.4,44.7-44.7,50.5-42.8,108.6-72.7,171-88.2,162-40.2,329.9,17.3,433.6,148.4,53.6,67.8,85.5,153.9,88.7,239.5l.7,17.5,11.3,.3,11.2,.3v41.9h27v20h-9v29h196.8c108.3,0,197.1,.2,197.3,.4,.2,.2,.3,5.9,.1,12.5Z"/>
  <path class="cls-1" d="M1329.2,479.69l-.3-6.2-.3-6.3-144.2-.3-144.3-.2v6.5h0v6.5h289.1Zm-286.1-6.5v-3.5l141.3,.2,141.2,.3,.3,3.3h0l.3,3.2h-283.1v-3.5Z"/>
  <path class="cls-1" d="M392.1,466.69v13h289.1l-.3-6.2-.3-6.3-144.2-.3-144.3-.2Zm285.8,6.8l.3,3.2H395.1v-7l141.3,.2,141.2,.3,.3,3.3Z"/>
  <path class="cls-1" d="M1455.2,583.59c-2.7-2.7-3.5-2.9-10-2.9h-7.1v10h0v10h5.4c3,0,6.6-.4,7.9-.9,7.1-2.7,9-10.9,3.8-16.2Zm-6.8,13.2h0c-1.3,.5-3.5,.9-4.9,.9-2.3,0-2.4-.2-2.4-7v-7h4.1c3.1,0,4.7,.6,7,2.9,1.6,1.6,2.9,3.3,2.9,3.8,0,1.5-4,5.4-6.7,6.4Z"/>
  <path class="cls-1" d="M1396.1,561.29c-.1-8.9-6.1-10.1-17.2-3.6-6.7,4-6.8,4.2-6.8,8.3s-.2,4.4-3.7,5.6c-5.1,1.9-11.7,8.3-14.1,13.9-4.3,10.2-3.7,23.6,1.6,32.2,2.9,4.7,10.2,10.3,15.6,12,5.1,1.5,21.6,.7,25.4-1.4,5.1-2.6,11.1-8.5,13.5-13,3-5.8,3.6-20.8,1.2-27.4-3.4-9.2-10.2-15.4-19.1-17.7l-4.5-1.1,4-1.9c3.8-1.7,4.1-2.1,4.1-5.9Zm12.4,29.4c2.3,6.4,1.8,15.7-1.2,21.6-2.3,4.5-8.4,10.4-13.4,13h0c-4.3,2.2-15.2,2.8-19.9,1.1-12.4-4.7-19.1-13.9-19.1-26.3-.1-15.8,11.7-27.4,27.8-27.4,12.2,0,21.7,6.6,25.8,18Zm-22.7-24.7c-8.5,4.3-9.3,4.4-10.2,1.5-.8-2.4,.7-3.9,9.1-8.4,5.3-2.8,5.3-2.9,6.8-.9,.9,1.1,1.5,2.5,1.6,3,0,.6-3.3,2.7-7.3,4.8Z"/>
  <path class="cls-1" d="M1371.8,582.59c-7.7,5-11,14.2-8.3,23.4,1.7,6,6.6,11.5,11.7,13.3h0c9.9,3.6,20.8-.8,25-10.1,3.4-7.4,2.1-16.8-3.3-23.6-5.3-6.6-17.1-8-25.1-3Zm17.3,2.2c3.7,2.1,8.6,8.5,9.7,12.7,1.3,5.3-3.8,14.7-9.6,17.6h0c-6.4,3.2-12,2.3-17.4-2.9-8.5-8.4-7.1-20.1,3-26.6,5.5-3.4,9.2-3.7,14.3-.8Z"/>
</svg>